<?xml version="1.0" encoding="iso-8859-1"?>
<!DOCTYPE svg PUBLIC "-//W3C//DTD SVG 1.1//EN" "http://www.w3.org/Graphics/SVG/1.1/DTD/svg11.dtd">
<svg 
 version="1.1" xmlns="http://www.w3.org/2000/svg" xmlns:xlink="http://www.w3.org/1999/xlink" x="0px" y="0px" width="512px"
	 height="512px" viewBox="0 0 512 512" enable-background="new 0 0 512 512" xml:space="preserve"
><g id="e6c6b53d3c8160b22dad35a0f70b66cc"><g></g><path display="inline" d="M170.833,383.75c0,23.521-19.063,42.583-42.583,42.583s-42.583-19.063-42.583-42.583
		s19.063-42.583,42.583-42.583S170.833,360.229,170.833,383.75z M383.75,341.167c-23.521,0-42.583,19.063-42.583,42.583
		c0,0.037,0.004,0.07,0.004,0.108l0,0c0.063,23.471,19.096,42.475,42.579,42.475c23.463,0,42.483-18.971,42.575-42.412l0,0
		c0-0.059,0.008-0.112,0.008-0.171C426.333,360.229,407.271,341.167,383.75,341.167z M511.5,298.583
		c0,42.584-21.292,84.635-63.875,85.167c-2.683,0.033-5.535,0.063-8.521,0.087c0-0.028,0.004-0.058,0.004-0.087
		c0-30.523-24.835-55.358-55.358-55.358s-55.358,24.835-55.358,55.358c0,0.017,0.004,0.033,0.004,0.046
		c-5.368-0.025-8.521-0.046-8.521-0.046h-42.583h-85.167h-8.517c0-30.523-24.835-55.358-55.358-55.358s-55.358,24.835-55.358,55.358
		H43.083c-23.421,0-42.583-19.162-42.583-42.583v-42.584h298.083V117.604l21.292,10.646c0,0,42.583,0,63.875,0
		C431.361,128.25,511.5,250.975,511.5,298.583z M456.142,238.967c-4.005-6.66-8.475-13.582-13.461-20.676
		c-28.798-40.979-52.127-55.598-58.282-55.975H329.04v76.65H456.142z M277.292,170.834v-63.875h-85.167v63.875v106.458h85.167
		V170.834z M170.833,213.417H0.5v66.153h170.333V213.417z M170.833,85.667H85.667v106.458h85.167V85.667z M64.375,128.25H0.5v63.875
		h63.875V128.25z"></path></g></svg>